<svg xlink="http://www.w3.org/1999/xlink" viewBox="0 0 5000 5000" xmlns="http://www.w3.org/2000/svg" style="transform: scale(1.4);"><defs><filter id="goo"><feGaussianBlur in="SourceGraphic" stdDeviation="8.75" result="blur"></feGaussianBlur><feColorMatrix in="blur" type="matrix" values="1 0 0 0 0 0 1 0 0 0 0 0 1 0 0 0 0 0 19 -9" result="good"></feColorMatrix><feComposite in="SourceGraphic" in2="goo" operator="atop"></feComposite></filter><path d="M260,289C245,292 230,287 221,277C232,260 230,255 210,247C215,224 234,209 257,211L260,289z" id="P0"></path><path d="M230,235C249,236 260,240 275,252C261,257 257,262 250,275C245,262 241,260 228,262L230,235z" id="P1"></path><path d="M228,268C235,253 236,245 231,230Q247,208 266,227C264,244 265,253 270,269C254,265 245,265 228,268z" id="P2"></path><path d="M300,203C320,227 323,259 310,283C293,310 264,323 237,318C207,310 185,286 182,259C180,227 196,199 221,188C250,176 281,183 300,203z" id="P3"></path><path d="M65,238L349,94L329,417L65,238z" id="P4"></path><path d="M200,171C215,161 234,168 255,169C287,172 393,116 422,182C437,214 440,250 431,284C419,343 318,323 290,336C263,349 212,449 168,425C145,416 154,366 143,351C105,307 164,250 173,225C179,205 184,179 200,171z" id="P5"></path><path d="M375,341L279,401L115,176L260,96L375,341z" id="P6"></path><path d="M250,85C336,94 400,155 415,250L250,415L85,250Q70,81 250,85z" id="P7"></path><path d="M244,273C231,268 224,255 228,240C235,229 247,224 259,228L272,260L244,273z" id="P8"></path><path d="M231,238C245,238 253,238 267,234C274,244 274,256 267,266C255,275 239,273 230,261L231,238z" id="P9"></path><path d="M223,222C246,229 258,230 283,229L269,284L213,238Q203,216 223,222z" id="P10"></path><path d="M285,194C310,212 320,241 314,266C304,295 280,314 254,316C224,316 199,298 189,274C180,246 188,216 208,199C232,182 263,181 285,194z" id="P11"></path><path d="M199,188L329,235L221,324L199,188z" id="P12"></path><path d="M389,135C420,170 301,240 300,256C299,263 413,315 406,323C388,364 332,363 307,371C250,393 220,313 197,288C195,285 135,313 136,313C119,284 73,250 85,208C95,165 113,121 163,91C238,57 321,70 389,135z" id="P13"></path><path d="M241,107L327,129L286,389L146,348L241,107z" id="P14"></path><path d="M195,150L350,195L305,350Q207,416 150,305L195,150z" id="P15"></path><path d="M236,285C232,260 229,246 228,219L274,221C289,237 290,260 274,279L236,285z" id="P16"></path><path d="M236,276C238,260 235,255 220,246Q221,215 254,220L280,250C276,271 256,283 236,276z" id="P17"></path><path d="M265,263Q256,279 243,269Q220,254 237,235C247,240 251,239 259,232L265,263z" id="P18"></path><path d="M186,250C188,221 206,197 230,189C259,182 287,192 302,212C317,237 316,267 302,288C283,310 254,318 230,311C203,300 186,275 186,250z" id="P19"></path><path d="M358,293L161,324L235,135L358,293z" id="P20"></path><path d="M192,145C234,124 298,62 367,109C412,147 414,208 411,250C411,302 308,292 293,302C280,314 287,443 226,438C214,438 220,366 213,363C184,354 145,349 124,309C103,259 125,209 150,177C158,163 172,156 192,145z" id="P21"></path><path d="M299,125L358,171L193,371L129,307L299,125z" id="P22"></path><path d="M377,180Q461,304 320,377C250,328 212,319 123,320Q39,196 180,123C250,172 288,181 377,180z" id="P23"></path><path d="M220,246Q228,211 264,224L266,275C252,266 245,265 229,272C222,265 219,256 220,246z" id="P24"></path><path d="M268,282L228,280L214,243C228,215 260,210 281,230C290,250 284,272 268,282z" id="P25"></path><path d="M263,277C258,280 252,281 244,279Q206,261 229,228C246,234 254,234 272,229C283,246 279,266 263,277z" id="P26"></path><path d="M250,170C286,173 316,195 326,225C335,261 322,296 297,315C266,334 229,333 203,315C175,291 165,255 174,225C188,191 218,170 250,170z" id="P27"></path><path d="M65,310L286,59L391,383L65,310z" id="P28"></path><path d="M197,86C239,71 280,94 315,112C368,139 378,199 380,258C379,292 401,346 375,368C354,393 332,424 297,431C213,447 170,360 143,318C138,312 111,315 105,297C89,240 107,183 155,135C169,122 175,91 197,86z" id="P29"></path><path d="M159,300L159,200L338,194L344,294L159,300z" id="P30"></path><path d="M250,432L68,250Q51,63 250,68Q437,51 432,250C336,297 303,333 250,432z" id="P31"></path></defs><rect id="RECT" width="5000" height="5000" fill="#9E2727"></rect><g id="group" fill="#F5F5F5" filter="url(#goo)" opacity="0.94"><use x="248" y="540" href="#P14"></use><use x="279" y="910" href="#P28"></use><use x="268" y="1118" href="#P28"></use><use x="651" y="1730" href="#P15"></use><use x="292" y="2134" href="#P6"></use><use x="582" y="2321" href="#P11"></use><use x="482" y="2835" href="#P13"></use><use x="497" y="3158" href="#P11"></use><use x="257" y="3642" href="#P18"></use><use x="518" y="4279" href="#P25"></use><use x="192" y="4733" href="#P29"></use><use x="1077" y="306" href="#P20"></use><use x="830" y="1028" href="#P23"></use><use x="1077" y="1226" href="#P15"></use><use x="1260" y="1850" href="#P1"></use><use x="1204" y="2100" href="#P18"></use><use x="904" y="2348" href="#P19"></use><use x="984" y="2743" href="#P18"></use><use x="1046" y="3389" href="#P26"></use><use x="926" y="3700" href="#P2"></use><use x="978" y="4055" href="#P9"></use><use x="832" y="4577" href="#P10"></use><use x="1627" y="695" href="#P30"></use><use x="1511" y="1166" href="#P23"></use><use x="1276" y="1177" href="#P20"></use><use x="1467" y="1646" href="#P10"></use><use x="1435" y="2242" href="#P0"></use><use x="1463" y="2376" href="#P3"></use><use x="1666" y="2886" href="#P0"></use><use x="1600" y="3237" href="#P5"></use><use x="1629" y="3441" href="#P23"></use><use x="1535" y="4278" href="#P21"></use><use x="1604" y="4304" href="#P26"></use><use x="1866" y="746" href="#P6"></use><use x="1953" y="988" href="#P5"></use><use x="1991" y="1593" href="#P2"></use><use x="1877" y="1633" href="#P10"></use><use x="1847" y="2176" href="#P11"></use><use x="2128" y="2548" href="#P18"></use><use x="1792" y="2824" href="#P11"></use><use x="2052" y="3027" href="#P30"></use><use x="1947" y="3761" href="#P23"></use><use x="1787" y="3860" href="#P12"></use><use x="1871" y="4550" href="#P18"></use><use x="2346" y="623" href="#P21"></use><use x="2174" y="774" href="#P9"></use><use x="2394" y="1468" href="#P19"></use><use x="2358" y="1890" href="#P11"></use><use x="2429" y="2182" href="#P8"></use><use x="2228" y="2610" href="#P9"></use><use x="2233" y="2882" href="#P3"></use><use x="2352" y="3213" href="#P23"></use><use x="2303" y="3406" href="#P20"></use><use x="2207" y="3851" href="#P14"></use><use x="2177" y="4249" href="#P7"></use><use x="2844" y="535" href="#P22"></use><use x="2666" y="1208" href="#P27"></use><use x="2820" y="1385" href="#P24"></use><use x="2592" y="1969" href="#P17"></use><use x="2567" y="2270" href="#P4"></use><use x="2643" y="2651" href="#P28"></use><use x="2729" y="2751" href="#P17"></use><use x="2745" y="3353" href="#P17"></use><use x="2522" y="3493" href="#P19"></use><use x="2664" y="4028" href="#P17"></use><use x="2552" y="4457" href="#P25"></use><use x="3001" y="641" href="#P28"></use><use x="3221" y="865" href="#P27"></use><use x="3313" y="1287" href="#P5"></use><use x="3027" y="1920" href="#P9"></use><use x="2990" y="2283" href="#P0"></use><use x="2915" y="2469" href="#P17"></use><use x="2948" y="2719" href="#P26"></use><use x="2936" y="3173" href="#P12"></use><use x="3106" y="3664" href="#P0"></use><use x="3084" y="4172" href="#P9"></use><use x="3063" y="4270" href="#P20"></use><use x="3460" y="462" href="#P1"></use><use x="3641" y="702" href="#P2"></use><use x="3360" y="1568" href="#P2"></use><use x="3697" y="1616" href="#P6"></use><use x="3678" y="2144" href="#P5"></use><use x="3374" y="2669" href="#P8"></use><use x="3471" y="2892" href="#P10"></use><use x="3297" y="3232" href="#P12"></use><use x="3296" y="3490" href="#P19"></use><use x="3495" y="4276" href="#P10"></use><use x="3722" y="4647" href="#P3"></use><use x="4221" y="136" href="#P11"></use><use x="4217" y="800" href="#P5"></use><use x="3922" y="1372" href="#P26"></use><use x="3790" y="1821" href="#P9"></use><use x="4099" y="1977" href="#P26"></use><use x="4031" y="2454" href="#P20"></use><use x="4032" y="2844" href="#P18"></use><use x="3731" y="3307" href="#P19"></use><use x="4055" y="3605" href="#P20"></use><use x="4302" y="4083" href="#P8"></use><use x="4073" y="4719" href="#P7"></use><use x="4732" y="210" href="#P27"></use><use x="4423" y="1023" href="#P9"></use><use x="4789" y="1223" href="#P23"></use><use x="4652" y="1509" href="#P21"></use><use x="4252" y="2286" href="#P11"></use><use x="4716" y="2583" href="#P18"></use><use x="4229" y="2987" href="#P10"></use><use x="4679" y="3127" href="#P14"></use><use x="4420" y="3928" href="#P2"></use><use x="4557" y="4386" href="#P17"></use><use x="4589" y="4665" href="#P27"></use></g></svg>